<mxfile host="app.diagrams.net" modified="2023-05-14T19:33:25.517Z" agent="Mozilla/5.0 (X11; Linux x86_64; rv:107.0) Gecko/20100101 Firefox/107.0" etag="MAQcDhuQyO3L5g2wq-JU" version="21.3.0" type="device">
  <diagram id="BW1FHNzKZwqUeu6iGbWb" name="Page-1">
    <mxGraphModel dx="1195" dy="623" grid="1" gridSize="10" guides="1" tooltips="1" connect="1" arrows="1" fold="1" page="1" pageScale="1" pageWidth="850" pageHeight="1100" math="0" shadow="0">
      <root>
        <mxCell id="0" />
        <mxCell id="1" parent="0" />
        <mxCell id="xX-jJuB34GITF2hs9PmQ-7" value="" style="edgeStyle=orthogonalEdgeStyle;rounded=0;orthogonalLoop=1;jettySize=auto;html=1;entryX=0.363;entryY=0.925;entryDx=0;entryDy=0;entryPerimeter=0;exitX=0.408;exitY=-0.033;exitDx=0;exitDy=0;exitPerimeter=0;" parent="1" source="xX-jJuB34GITF2hs9PmQ-3" target="xX-jJuB34GITF2hs9PmQ-6" edge="1">
          <mxGeometry relative="1" as="geometry" />
        </mxCell>
        <mxCell id="xX-jJuB34GITF2hs9PmQ-49" style="edgeStyle=orthogonalEdgeStyle;rounded=0;orthogonalLoop=1;jettySize=auto;html=1;entryX=0.413;entryY=0.05;entryDx=0;entryDy=0;entryPerimeter=0;exitX=0.443;exitY=1.027;exitDx=0;exitDy=0;exitPerimeter=0;" parent="1" source="xX-jJuB34GITF2hs9PmQ-3" target="xX-jJuB34GITF2hs9PmQ-47" edge="1">
          <mxGeometry relative="1" as="geometry">
            <mxPoint x="420" y="450" as="targetPoint" />
          </mxGeometry>
        </mxCell>
        <mxCell id="xX-jJuB34GITF2hs9PmQ-3" value="Project" style="rounded=0;whiteSpace=wrap;html=1;" parent="1" vertex="1">
          <mxGeometry x="360" y="360" width="120" height="60" as="geometry" />
        </mxCell>
        <mxCell id="xX-jJuB34GITF2hs9PmQ-9" value="" style="edgeStyle=orthogonalEdgeStyle;rounded=0;orthogonalLoop=1;jettySize=auto;html=1;" parent="1" source="xX-jJuB34GITF2hs9PmQ-6" target="xX-jJuB34GITF2hs9PmQ-8" edge="1">
          <mxGeometry relative="1" as="geometry" />
        </mxCell>
        <mxCell id="Xpo3j2nRxMElj7N1LP_1-1" value="N" style="edgeLabel;html=1;align=center;verticalAlign=middle;resizable=0;points=[];" vertex="1" connectable="0" parent="xX-jJuB34GITF2hs9PmQ-9">
          <mxGeometry x="0.1667" y="-1" relative="1" as="geometry">
            <mxPoint as="offset" />
          </mxGeometry>
        </mxCell>
        <mxCell id="xX-jJuB34GITF2hs9PmQ-38" style="edgeStyle=orthogonalEdgeStyle;rounded=0;orthogonalLoop=1;jettySize=auto;html=1;entryX=0.5;entryY=1;entryDx=0;entryDy=0;" parent="1" source="xX-jJuB34GITF2hs9PmQ-6" target="xX-jJuB34GITF2hs9PmQ-37" edge="1">
          <mxGeometry relative="1" as="geometry" />
        </mxCell>
        <mxCell id="Xpo3j2nRxMElj7N1LP_1-2" value="N" style="edgeLabel;html=1;align=center;verticalAlign=middle;resizable=0;points=[];" vertex="1" connectable="0" parent="xX-jJuB34GITF2hs9PmQ-38">
          <mxGeometry x="0.2074" y="3" relative="1" as="geometry">
            <mxPoint as="offset" />
          </mxGeometry>
        </mxCell>
        <mxCell id="xX-jJuB34GITF2hs9PmQ-6" value="&lt;div&gt;stores&lt;/div&gt;" style="rhombus;whiteSpace=wrap;html=1;rounded=0;" parent="1" vertex="1">
          <mxGeometry x="380" y="210" width="80" height="80" as="geometry" />
        </mxCell>
        <mxCell id="xX-jJuB34GITF2hs9PmQ-13" value="" style="edgeStyle=orthogonalEdgeStyle;rounded=0;orthogonalLoop=1;jettySize=auto;html=1;" parent="1" source="xX-jJuB34GITF2hs9PmQ-8" target="xX-jJuB34GITF2hs9PmQ-12" edge="1">
          <mxGeometry relative="1" as="geometry" />
        </mxCell>
        <mxCell id="xX-jJuB34GITF2hs9PmQ-22" style="edgeStyle=orthogonalEdgeStyle;rounded=0;orthogonalLoop=1;jettySize=auto;html=1;entryX=0;entryY=0.5;entryDx=0;entryDy=0;" parent="1" source="xX-jJuB34GITF2hs9PmQ-8" target="xX-jJuB34GITF2hs9PmQ-21" edge="1">
          <mxGeometry relative="1" as="geometry" />
        </mxCell>
        <mxCell id="xX-jJuB34GITF2hs9PmQ-30" style="edgeStyle=orthogonalEdgeStyle;rounded=0;orthogonalLoop=1;jettySize=auto;html=1;" parent="1" source="xX-jJuB34GITF2hs9PmQ-8" target="xX-jJuB34GITF2hs9PmQ-27" edge="1">
          <mxGeometry relative="1" as="geometry" />
        </mxCell>
        <mxCell id="xX-jJuB34GITF2hs9PmQ-31" style="edgeStyle=orthogonalEdgeStyle;rounded=0;orthogonalLoop=1;jettySize=auto;html=1;entryX=1.05;entryY=0.767;entryDx=0;entryDy=0;entryPerimeter=0;" parent="1" source="xX-jJuB34GITF2hs9PmQ-8" target="xX-jJuB34GITF2hs9PmQ-26" edge="1">
          <mxGeometry relative="1" as="geometry" />
        </mxCell>
        <mxCell id="xX-jJuB34GITF2hs9PmQ-32" style="edgeStyle=orthogonalEdgeStyle;rounded=0;orthogonalLoop=1;jettySize=auto;html=1;entryX=0.5;entryY=1;entryDx=0;entryDy=0;" parent="1" source="xX-jJuB34GITF2hs9PmQ-8" target="xX-jJuB34GITF2hs9PmQ-25" edge="1">
          <mxGeometry relative="1" as="geometry" />
        </mxCell>
        <mxCell id="xX-jJuB34GITF2hs9PmQ-33" style="edgeStyle=orthogonalEdgeStyle;rounded=0;orthogonalLoop=1;jettySize=auto;html=1;entryX=0.383;entryY=1.033;entryDx=0;entryDy=0;entryPerimeter=0;" parent="1" source="xX-jJuB34GITF2hs9PmQ-8" target="xX-jJuB34GITF2hs9PmQ-24" edge="1">
          <mxGeometry relative="1" as="geometry" />
        </mxCell>
        <mxCell id="xX-jJuB34GITF2hs9PmQ-34" style="edgeStyle=orthogonalEdgeStyle;rounded=0;orthogonalLoop=1;jettySize=auto;html=1;entryX=0;entryY=0.5;entryDx=0;entryDy=0;" parent="1" source="xX-jJuB34GITF2hs9PmQ-8" target="xX-jJuB34GITF2hs9PmQ-23" edge="1">
          <mxGeometry relative="1" as="geometry" />
        </mxCell>
        <mxCell id="xX-jJuB34GITF2hs9PmQ-35" style="edgeStyle=orthogonalEdgeStyle;rounded=0;orthogonalLoop=1;jettySize=auto;html=1;entryX=0;entryY=0.5;entryDx=0;entryDy=0;" parent="1" source="xX-jJuB34GITF2hs9PmQ-8" target="xX-jJuB34GITF2hs9PmQ-28" edge="1">
          <mxGeometry relative="1" as="geometry" />
        </mxCell>
        <mxCell id="xX-jJuB34GITF2hs9PmQ-36" style="edgeStyle=orthogonalEdgeStyle;rounded=0;orthogonalLoop=1;jettySize=auto;html=1;entryX=1;entryY=0.5;entryDx=0;entryDy=0;" parent="1" source="xX-jJuB34GITF2hs9PmQ-8" target="xX-jJuB34GITF2hs9PmQ-29" edge="1">
          <mxGeometry relative="1" as="geometry" />
        </mxCell>
        <mxCell id="xX-jJuB34GITF2hs9PmQ-8" value="Account" style="whiteSpace=wrap;html=1;rounded=0;" parent="1" vertex="1">
          <mxGeometry x="170" y="100" width="120" height="60" as="geometry" />
        </mxCell>
        <mxCell id="xX-jJuB34GITF2hs9PmQ-12" value="id" style="ellipse;whiteSpace=wrap;html=1;rounded=0;" parent="1" vertex="1">
          <mxGeometry x="10" y="115" width="60" height="30" as="geometry" />
        </mxCell>
        <mxCell id="xX-jJuB34GITF2hs9PmQ-21" value="username" style="ellipse;whiteSpace=wrap;html=1;rounded=0;" parent="1" vertex="1">
          <mxGeometry x="390" y="115" width="60" height="30" as="geometry" />
        </mxCell>
        <mxCell id="xX-jJuB34GITF2hs9PmQ-23" value="password" style="ellipse;whiteSpace=wrap;html=1;rounded=0;" parent="1" vertex="1">
          <mxGeometry x="360" y="60" width="60" height="30" as="geometry" />
        </mxCell>
        <mxCell id="xX-jJuB34GITF2hs9PmQ-24" value="email" style="ellipse;whiteSpace=wrap;html=1;rounded=0;" parent="1" vertex="1">
          <mxGeometry x="280" y="30" width="60" height="30" as="geometry" />
        </mxCell>
        <mxCell id="xX-jJuB34GITF2hs9PmQ-25" value="country" style="ellipse;whiteSpace=wrap;html=1;rounded=0;" parent="1" vertex="1">
          <mxGeometry x="190" y="30" width="60" height="30" as="geometry" />
        </mxCell>
        <mxCell id="xX-jJuB34GITF2hs9PmQ-26" value="created_on" style="ellipse;whiteSpace=wrap;html=1;rounded=0;" parent="1" vertex="1">
          <mxGeometry x="100" y="50" width="60" height="30" as="geometry" />
        </mxCell>
        <mxCell id="xX-jJuB34GITF2hs9PmQ-27" value="last_login" style="ellipse;whiteSpace=wrap;html=1;rounded=0;" parent="1" vertex="1">
          <mxGeometry x="40" y="70" width="60" height="30" as="geometry" />
        </mxCell>
        <mxCell id="xX-jJuB34GITF2hs9PmQ-28" value="bio" style="ellipse;whiteSpace=wrap;html=1;rounded=0;" parent="1" vertex="1">
          <mxGeometry x="350" y="145" width="60" height="30" as="geometry" />
        </mxCell>
        <mxCell id="xX-jJuB34GITF2hs9PmQ-29" value="profile_pic" style="ellipse;whiteSpace=wrap;html=1;rounded=0;" parent="1" vertex="1">
          <mxGeometry x="50" y="145" width="60" height="30" as="geometry" />
        </mxCell>
        <mxCell id="xX-jJuB34GITF2hs9PmQ-43" style="edgeStyle=orthogonalEdgeStyle;rounded=0;orthogonalLoop=1;jettySize=auto;html=1;entryX=0.5;entryY=1;entryDx=0;entryDy=0;" parent="1" source="xX-jJuB34GITF2hs9PmQ-37" target="xX-jJuB34GITF2hs9PmQ-39" edge="1">
          <mxGeometry relative="1" as="geometry" />
        </mxCell>
        <mxCell id="xX-jJuB34GITF2hs9PmQ-44" style="edgeStyle=orthogonalEdgeStyle;rounded=0;orthogonalLoop=1;jettySize=auto;html=1;entryX=0.5;entryY=1;entryDx=0;entryDy=0;" parent="1" source="xX-jJuB34GITF2hs9PmQ-37" target="xX-jJuB34GITF2hs9PmQ-40" edge="1">
          <mxGeometry relative="1" as="geometry" />
        </mxCell>
        <mxCell id="xX-jJuB34GITF2hs9PmQ-45" style="edgeStyle=orthogonalEdgeStyle;rounded=0;orthogonalLoop=1;jettySize=auto;html=1;entryX=0.5;entryY=1;entryDx=0;entryDy=0;" parent="1" source="xX-jJuB34GITF2hs9PmQ-37" target="xX-jJuB34GITF2hs9PmQ-42" edge="1">
          <mxGeometry relative="1" as="geometry" />
        </mxCell>
        <mxCell id="xX-jJuB34GITF2hs9PmQ-46" style="edgeStyle=orthogonalEdgeStyle;rounded=0;orthogonalLoop=1;jettySize=auto;html=1;entryX=0.5;entryY=1;entryDx=0;entryDy=0;" parent="1" source="xX-jJuB34GITF2hs9PmQ-37" target="xX-jJuB34GITF2hs9PmQ-41" edge="1">
          <mxGeometry relative="1" as="geometry" />
        </mxCell>
        <mxCell id="xX-jJuB34GITF2hs9PmQ-37" value="Message" style="rounded=0;whiteSpace=wrap;html=1;" parent="1" vertex="1">
          <mxGeometry x="580" y="100" width="120" height="60" as="geometry" />
        </mxCell>
        <mxCell id="xX-jJuB34GITF2hs9PmQ-39" value="user_id" style="ellipse;whiteSpace=wrap;html=1;rounded=0;" parent="1" vertex="1">
          <mxGeometry x="570" y="40" width="60" height="30" as="geometry" />
        </mxCell>
        <mxCell id="xX-jJuB34GITF2hs9PmQ-40" value="content" style="ellipse;whiteSpace=wrap;html=1;rounded=0;" parent="1" vertex="1">
          <mxGeometry x="660" y="40" width="60" height="30" as="geometry" />
        </mxCell>
        <mxCell id="xX-jJuB34GITF2hs9PmQ-41" value="id" style="ellipse;whiteSpace=wrap;html=1;rounded=0;" parent="1" vertex="1">
          <mxGeometry x="510" y="80" width="60" height="30" as="geometry" />
        </mxCell>
        <mxCell id="xX-jJuB34GITF2hs9PmQ-42" value="created_on" style="ellipse;whiteSpace=wrap;html=1;rounded=0;" parent="1" vertex="1">
          <mxGeometry x="710" y="80" width="60" height="30" as="geometry" />
        </mxCell>
        <mxCell id="xX-jJuB34GITF2hs9PmQ-51" value="" style="edgeStyle=orthogonalEdgeStyle;rounded=0;orthogonalLoop=1;jettySize=auto;html=1;" parent="1" source="xX-jJuB34GITF2hs9PmQ-47" target="xX-jJuB34GITF2hs9PmQ-50" edge="1">
          <mxGeometry relative="1" as="geometry" />
        </mxCell>
        <mxCell id="Xpo3j2nRxMElj7N1LP_1-7" value="N" style="edgeLabel;html=1;align=center;verticalAlign=middle;resizable=0;points=[];" vertex="1" connectable="0" parent="xX-jJuB34GITF2hs9PmQ-51">
          <mxGeometry x="-0.2385" y="-2" relative="1" as="geometry">
            <mxPoint as="offset" />
          </mxGeometry>
        </mxCell>
        <mxCell id="xX-jJuB34GITF2hs9PmQ-53" style="edgeStyle=orthogonalEdgeStyle;rounded=0;orthogonalLoop=1;jettySize=auto;html=1;entryX=0;entryY=0.5;entryDx=0;entryDy=0;" parent="1" source="xX-jJuB34GITF2hs9PmQ-47" target="xX-jJuB34GITF2hs9PmQ-52" edge="1">
          <mxGeometry relative="1" as="geometry" />
        </mxCell>
        <mxCell id="Xpo3j2nRxMElj7N1LP_1-6" value="1" style="edgeLabel;html=1;align=center;verticalAlign=middle;resizable=0;points=[];" vertex="1" connectable="0" parent="xX-jJuB34GITF2hs9PmQ-53">
          <mxGeometry x="-0.3259" relative="1" as="geometry">
            <mxPoint as="offset" />
          </mxGeometry>
        </mxCell>
        <mxCell id="xX-jJuB34GITF2hs9PmQ-47" value="Serves" style="rhombus;whiteSpace=wrap;html=1;" parent="1" vertex="1">
          <mxGeometry x="380" y="490" width="80" height="80" as="geometry" />
        </mxCell>
        <mxCell id="xX-jJuB34GITF2hs9PmQ-50" value="Message" style="whiteSpace=wrap;html=1;" parent="1" vertex="1">
          <mxGeometry x="180" y="550" width="120" height="60" as="geometry" />
        </mxCell>
        <mxCell id="xX-jJuB34GITF2hs9PmQ-52" value="Accountpage" style="whiteSpace=wrap;html=1;" parent="1" vertex="1">
          <mxGeometry x="500" y="550" width="120" height="60" as="geometry" />
        </mxCell>
        <mxCell id="Xpo3j2nRxMElj7N1LP_1-4" value="" style="edgeStyle=orthogonalEdgeStyle;rounded=0;orthogonalLoop=1;jettySize=auto;html=1;entryX=0.625;entryY=0.913;entryDx=0;entryDy=0;entryPerimeter=0;exitX=0.583;exitY=-0.017;exitDx=0;exitDy=0;exitPerimeter=0;" edge="1" parent="1" source="xX-jJuB34GITF2hs9PmQ-3" target="xX-jJuB34GITF2hs9PmQ-6">
          <mxGeometry relative="1" as="geometry">
            <mxPoint x="419" y="368" as="sourcePoint" />
            <mxPoint x="419" y="294" as="targetPoint" />
          </mxGeometry>
        </mxCell>
        <mxCell id="Xpo3j2nRxMElj7N1LP_1-5" style="edgeStyle=orthogonalEdgeStyle;rounded=0;orthogonalLoop=1;jettySize=auto;html=1;entryX=0.552;entryY=0.014;entryDx=0;entryDy=0;entryPerimeter=0;exitX=0.538;exitY=1.035;exitDx=0;exitDy=0;exitPerimeter=0;" edge="1" parent="1" source="xX-jJuB34GITF2hs9PmQ-3" target="xX-jJuB34GITF2hs9PmQ-47">
          <mxGeometry relative="1" as="geometry">
            <mxPoint x="423" y="504" as="targetPoint" />
            <mxPoint x="423" y="432" as="sourcePoint" />
          </mxGeometry>
        </mxCell>
      </root>
    </mxGraphModel>
  </diagram>
</mxfile>
